<?xml version="1.0" encoding="UTF-8"?>
<svg id="Warstwa_2" data-name="Warstwa 2" xmlns="http://www.w3.org/2000/svg" xmlns:xlink="http://www.w3.org/1999/xlink" viewBox="0 0 271.17 271.17">
  <defs>
    <style>
      .cls-1 {
        fill: #fff;
      }

      .cls-1, .cls-2 {
        stroke-width: 0px;
      }

      .cls-2 {
        fill: url(#Gradient_bez_nazwy_5);
      }
    </style>
    <linearGradient id="Gradient_bez_nazwy_5" data-name="Gradient bez nazwy 5" x1="48.97" y1="11.26" x2="164.01" y2="176.39" gradientUnits="userSpaceOnUse">
      <stop offset="0" stop-color="#6f90fb"/>
      <stop offset="1" stop-color="#415ae8"/>
    </linearGradient>
  </defs>
  <g id="Warstwa_1-2" data-name="Warstwa 1">
    <rect class="cls-2" width="271.17" height="271.17" rx="39.13" ry="39.13"/>
    <path class="cls-1" d="m228.33,132.22v6.66c-.31,33.5-21.5,66.88-54.94,81.28-12.57,5.34-25.33,7.92-37.78,8.17-12.51-.25-25.27-2.83-37.91-8.17-34.45-14.83-55.88-49.98-54.82-84.55-1.07-34.7,20.37-69.84,54.82-84.61,12.64-5.34,25.4-7.92,37.91-8.17,12.45.25,25.21,2.83,37.78,8.17,22.57,9.68,39.54,28.03,48.28,49.22.94,2.2,1.76,4.46,2.45,6.73h-11.06c-1.51-2.39-3.14-4.59-5.03-6.73-16.41-18.92-45.01-28.98-72.41-28.48-41.3-.76-85.37,22.38-86.25,63.87.88,41.43,44.95,64.56,86.25,63.74,40.1.75,82.98-21.06,85.99-60.47h-38.79l-4.27,1.45c-18.04,5.97-32.19,20.11-38.16,38.16l-2.52,7.61h-4.52l-2.52-7.61c-6.03-18.04-20.18-32.18-38.16-38.16l-7.23-2.39v-4.78l7.23-2.39c17.98-5.97,32.12-20.12,38.16-38.16l2.39-7.23h4.78l2.39,7.23c5.97,18.04,20.12,32.19,38.16,38.16l4.27,1.45h45.51Z"/>
  </g>
</svg>